PathFileType	4	(X/Y/Z)	D:\Share\Shared_Data\Ergonomics\Sit To Stand Pertubation\S1\Perturbed_NoHarness.trc
DataRate	CameraRate	NumFrames	NumMarkers	Units	OrigDataRate	OrigDataStartFrame	OrigNumFrames	
100	100	6	18	m	100	5189	231
Frame#	Time	L_ASIS			R_ASIS			R_Pelvis			V_Sacral			L_Pelvis			Clavical			R_Acromium			L_Acromium			Sternum			Torso			R_Thigh_Med			R_Thigh_Lat			R_Thigh			R_Shank_Med			R_Shank_Lat			R_Shank			R_Heel			R_Toe			
		X1	Y1	Z1	X2	Y2	Z2	X3	Y3	Z3	X4	Y4	Z4	X5	Y5	Z5	X6	Y6	Z6	X7	Y7	Z7	X8	Y8	Z8	X9	Y9	Z9	X10	Y10	Z10	X11	Y11	Z11	X12	Y12	Z12	X13	Y13	Z13	X14	Y14	Z14	X15	Y15	Z15	X16	Y16	Z16	X17	Y17	Z17	X18	Y18	Z18	

5189	51.88	0.022503878	0.64757214	-0.091762215	0.011118536	0.63642291	0.11192243	-0.074662552	0.63645569	0.1401355	-0.17449309	0.57660919	0.010329553	-0.070682869	0.63078741	-0.129836	0.03360981	0.96467737	-0.0014130971	-0.026462284	1.0388933	0.1443541	-0.067214386	0.99545081	-0.19893054	0.019651358	0.98024988	0.099007584	0.030091602	0.9695025	-0.060147839	0.29932404	0.41404633	0.039579948	0.29512534	0.43795587	0.15992255	0.16465147	0.551565	0.10899577	0.329302	0.096566017	0.10431588	0.30467465	0.10036344	0.18223427	0.29711795	0.31324152	0.18463023	0.26328165	0.033121754	0.12816556	0.4675332	0.052308201	0.14254962
5190	51.89	0.022564968	0.64752582	-0.09188768	0.011161716	0.63639075	0.1119665	-0.074660904	0.63640765	0.14005437	-0.17451201	0.57658966	0.010318748	-0.070734062	0.63097235	-0.13063565	0.033959488	0.96450598	-0.0013456589	-0.025992374	1.0388226	0.14443903	-0.066769379	0.99534906	-0.1988369	0.020017048	0.98009937	0.099085663	0.030530546	0.96930157	-0.060090675	0.29929294	0.41404013	0.039525944	0.29511685	0.43795709	0.15986513	0.16468935	0.55161633	0.10896456	0.32940106	0.096587196	0.10429044	0.30467081	0.10036021	0.18221884	0.29710349	0.31324579	0.18458623	0.26327927	0.03312241	0.12816199	0.46749234	0.052268131	0.14253203
5191	51.9	0.022634386	0.6474649	-0.092028191	0.011207088	0.63634753	0.11201012	-0.074659019	0.63632104	0.13992896	-0.17453363	0.57656714	0.010306673	-0.070779137	0.63115112	-0.13144997	0.034363613	0.96430493	-0.0012756565	-0.02544849	1.0387423	0.14452676	-0.066258362	0.99522668	-0.19874091	0.020439657	0.97992377	0.099167732	0.03103616	0.96906744	-0.060034279	0.29925525	0.41403595	0.039462643	0.29510571	0.43795984	0.15979907	0.16472855	0.5516767	0.10893739	0.32951041	0.096613571	0.10425957	0.30466623	0.10035847	0.18219928	0.29708682	0.31325119	0.1845356	0.26327588	0.033122807	0.12815762	0.46744733	0.052226955	0.14251163
5192	51.91	0.022713221	0.64738794	-0.092182304	0.011252687	0.6362901	0.1120485	-0.074655983	0.63618848	0.13975151	-0.17455725	0.57654248	0.010293539	-0.070814552	0.63131842	-0.13225162	0.034832523	0.96407147	-0.0012020603	-0.024819021	1.0386517	0.14461823	-0.065670403	0.99508417	-0.19864169	0.020929615	0.9797207	0.099255585	0.03161899	0.96879749	-0.059978909	0.29921112	0.4140343	0.039390377	0.29509195	0.43796436	0.1597249	0.16476851	0.55174554	0.10891711	0.32961972	0.096643005	0.10422376	0.30466055	0.10035869	0.18217526	0.29706781	0.31325769	0.18447876	0.26327139	0.033122692	0.12815245	0.46739908	0.052186356	0.14248859
5193	51.92	0.022802761	0.64729358	-0.09234803	0.01129597	0.63621497	0.11207558	-0.074650642	0.63600342	0.13951579	-0.17458208	0.57651678	0.010279614	-0.070836937	0.63146979	-0.13301414	0.035377628	0.96380328	-0.0011237135	-0.024091135	1.0385499	0.14471454	-0.064993561	0.99492255	-0.19853798	0.021498501	0.97948767	0.099351112	0.032290279	0.96848956	-0.059924793	0.29916074	0.41403595	0.039310009	0.29507559	0.43797076	0.15964368	0.16480858	0.55182202	0.10890688	0.32971844	0.096673203	0.10418356	0.30465359	0.10036127	0.18214651	0.29704639	0.31326526	0.1844165	0.26326566	0.033121807	0.12814632	0.46734872	0.052148331	0.14246324
5194	51.93	0.022904369	0.64718109	-0.092523033	0.011333966	0.63611871	0.11208427	-0.074641685	0.63576202	0.13921803	-0.17460716	0.57649115	0.010265228	-0.070843315	0.63160181	-0.13371411	0.036011276	0.96349847	-0.001039373	-0.023250839	1.0384363	0.14481686	-0.064215134	0.99474414	-0.19842815	0.022158878	0.9792226	0.0994562	0.033061821	0.96814191	-0.05987207	0.29910474	0.41404135	0.0392229	0.29505676	0.43797906	0.15955698	0.16484802	0.55190491	0.10891005	0.32979663	0.096701874	0.1041395	0.30464502	0.10036656	0.18211284	0.29702252	0.31327377	0.18434995	0.26325861	0.033119896	0.12813918	0.46729739	0.052115112	0.14243607
